<?xml version="1.0" encoding="utf-8"?>
<!-- Generator: Adobe Illustrator 19.2.1, SVG Export Plug-In . SVG Version: 6.00 Build 0)  -->
<svg version="1.1" id="Capa_1" xmlns="http://www.w3.org/2000/svg" xmlns:xlink="http://www.w3.org/1999/xlink" x="0px" y="0px"
	 viewBox="0 0 71 59.2" style="enable-background:new 0 0 71 59.2;" xml:space="preserve">
<style type="text/css">
	.st0{fill:#B7202E;}
	.st1{fill:#FFFFFF;}
	.st2{fill:#EF3829;}
</style>
<g>
	<g>
		<path class="st0" d="M34.1,48.1H9.6c-2.6,0-4.8-2.3-4.8-5.1V9.6c0-2.8,2.1-5.1,4.8-5.1h50.8c2.6,0,4.8,2.3,4.8,5.1V43
			c0,2.8-2.2,5.1-4.8,5.1l-6.5,0.1l-0.2,8.9L34.1,48.1z"/>
	</g>
	<g>
		<g>
			<g>
				<g>
					<path class="st1" d="M43.4,16.7c0-3.5-3.5-7-7.8-7s-7.8,3.6-7.8,7v5.2c0,0,0.7,0.5,1.9,1c0,2.8,1.5,5.1,3.8,6.5
						c0,0,0.1,0,0.1,0.1c1.3,0.7,2.8,0.7,4.1,0c0,0,0,0,0.1,0c1.2-0.6,2.1-1.7,2.8-2.8c0.2,0.1,0.4,0.1,0.5,0.1
						c1.6,0,2.3-1.9,2.3-1.9L43.4,16.7L43.4,16.7z"/>
				</g>
				<g>
					<path d="M43.9,22.9h-1.2v-6c0-1.5-0.7-3.2-2.1-4.5c-1.4-1.4-3.2-2.1-5.1-2.1c-4.1,0-7.1,3.5-7.1,6.6v5h-1.2v-5
						c0-3.7,3.6-7.9,8.4-7.9c2.1,0,4.3,0.9,6,2.5c1.6,1.5,2.5,3.5,2.5,5.3L43.9,22.9L43.9,22.9z"/>
				</g>
				<g>
					<path class="st2" d="M26.5,23.8h1.2v-4.7h-1.2c-0.6,0-1.2,0.5-1.2,1.2v2.5C25.4,23.3,25.9,23.8,26.5,23.8z"/>
					<path d="M28.4,24.3h-1.9c-1,0-1.7-0.7-1.7-1.7V20c0-1,0.7-1.7,1.7-1.7h1.9V24.3z M26.4,19.7c-0.3,0-0.5,0.2-0.5,0.5v2.6
						c0,0.2,0.2,0.4,0.4,0.4H27v-3.5H26.4z"/>
				</g>
				<g>
					<path class="st2" d="M44.6,23.8h-1.2v-4.7h1.2c0.6,0,1.2,0.5,1.2,1.2v2.5C45.7,23.3,45.2,23.8,44.6,23.8z"/>
					<path d="M44.7,24.3h-1.9v-6h1.9c1,0,1.7,0.7,1.7,1.7v2.6C46.4,23.6,45.5,24.3,44.7,24.3z M43.9,23.2h0.6c0.2,0,0.4-0.2,0.4-0.4
						v-2.6c0-0.2-0.2-0.5-0.5-0.5h-0.6L43.9,23.2L43.9,23.2z"/>
				</g>
				<g>
					<path d="M35.6,30.5c-0.7,0-1.6-0.2-2.3-0.6l-0.1-0.1c-2.6-1.5-4.2-4.3-4.2-7.2V19h1.2v3.6c0,2.6,1.4,4.9,3.5,6.2l-0.2,0.6
						l0.3-0.5c1.1,0.6,2.3,0.6,3.4,0c2.2-1.3,3.5-3.6,3.5-6.2V21h1.2v1.7c0,3-1.6,5.7-4.1,7.1C37.2,30.3,36.5,30.5,35.6,30.5z"/>
				</g>
				<g>
					<path d="M42.4,21.6c-3.6,0-10.6-4.4-10.6-8.2H33c0,2.8,6.1,6.9,9.3,6.9L42.4,21.6L42.4,21.6z"/>
				</g>
				<g>
					<path d="M30.3,19.2l-1.2-0.3c0.5-1.7,2.7-3.7,4.4-3.7v1.2C32.3,16.3,30.6,18.1,30.3,19.2z"/>
				</g>
				<g>
					<path d="M40.6,27.2h-4.8V26h4.8c0.9,0,1.6-0.5,1.9-1.3l0.2-0.6v-0.9h1.2v1.2l-0.3,0.7C43.2,26.5,42,27.2,40.6,27.2z"/>
				</g>
				<g>
					<path class="st2" d="M36.7,27.5h-2.1c-0.3,0-0.5-0.2-0.5-0.5v-1.3c0-0.3,0.2-0.5,0.5-0.5h2.1c0.3,0,0.5,0.2,0.5,0.5v1.2
						C37.2,27.3,37,27.5,36.7,27.5z"/>
					<path d="M36.7,28.2h-2.2c-0.6,0-1.2-0.5-1.2-1.2v-1.3c0-0.6,0.5-1.2,1.2-1.2h2.2c0.6,0,1.2,0.5,1.2,1.2V27
						C37.8,27.6,37.3,28.2,36.7,28.2z M36.6,25.7l-2.1,0.1l0.1,1.2l2.1-0.1L36.6,25.7L36.6,25.7z M36.7,26.9L36.7,26.9L36.7,26.9z"
						/>
				</g>
			</g>
		</g>
	</g>
	<g>
		<path class="st1" d="M17.2,33.9l2.5,6.5l2.5-6.5H24v8.5h-1.5v-2.8l0.1-3.8l-2.5,6.6H19l-2.5-6.6l0.1,3.8v2.8h-1.5v-8.5H17.2z"/>
		<path class="st1" d="M25.7,34.4c0-0.2,0.1-0.4,0.2-0.5s0.3-0.2,0.6-0.2s0.5,0.1,0.6,0.2c0.1,0.1,0.2,0.3,0.2,0.5s-0.1,0.4-0.2,0.5
			s-0.3,0.2-0.6,0.2S26,35,25.9,34.9C25.7,34.8,25.7,34.6,25.7,34.4z M27.2,42.4h-1.4v-6.3h1.4V42.4z"/>
		<path class="st1" d="M38.4,39.6c-0.1,0.9-0.4,1.6-1,2.1S36,42.5,35,42.5c-0.7,0-1.3-0.2-1.8-0.5s-0.9-0.8-1.2-1.4
			s-0.4-1.3-0.4-2.1v-0.8c0-0.8,0.1-1.5,0.4-2.1s0.7-1.1,1.2-1.4s1.1-0.5,1.8-0.5c0.9,0,1.7,0.3,2.3,0.8s0.9,1.2,1,2.2h-1.5
			c-0.1-0.6-0.2-1.1-0.5-1.3S35.6,35,35,35s-1.1,0.2-1.5,0.7S33,36.9,33,37.8v0.8c0,0.9,0.2,1.6,0.5,2.1s0.8,0.7,1.5,0.7
			c0.6,0,1-0.1,1.3-0.4s0.5-0.7,0.6-1.3L38.4,39.6L38.4,39.6z"/>
		<path class="st1" d="M41,36.7c0.5-0.5,1.1-0.8,1.8-0.8c1.4,0,2,0.8,2.1,2.3v4.1h-1.4v-4.1c0-0.4-0.1-0.7-0.3-0.9S42.7,37,42.4,37
			c-0.6,0-1,0.3-1.3,0.8v4.5h-1.4v-9H41V36.7z"/>
		<path class="st1" d="M50,42.4c-0.1-0.1-0.1-0.3-0.2-0.6c-0.5,0.5-1,0.7-1.7,0.7c-0.6,0-1.2-0.2-1.6-0.5S46,41.1,46,40.6
			c0-0.7,0.3-1.2,0.8-1.6s1.2-0.5,2.2-0.5h0.9v-0.4c0-0.3-0.1-0.6-0.3-0.8S49,37,48.7,37s-0.6,0.1-0.8,0.2s-0.3,0.4-0.3,0.6h-1.4
			c0-0.3,0.1-0.7,0.3-1s0.5-0.5,0.9-0.7s0.8-0.3,1.3-0.3c0.7,0,1.3,0.2,1.8,0.6s0.7,0.9,0.7,1.6v2.9c0,0.6,0.1,1,0.2,1.4v0.1
			C51.4,42.4,50,42.4,50,42.4z M48.4,41.4c0.3,0,0.5-0.1,0.8-0.2s0.4-0.3,0.6-0.6v-1.2H49c-0.5,0-0.9,0.1-1.2,0.3s-0.4,0.4-0.4,0.8
			c0,0.3,0.1,0.5,0.3,0.7S48.1,41.4,48.4,41.4z"/>
		<path class="st1" d="M54.5,34.5V36h1.1v1.1h-1.1v3.5c0,0.2,0,0.4,0.1,0.5s0.3,0.2,0.5,0.2s0.3,0,0.5-0.1v1.1
			c-0.3,0.1-0.6,0.1-0.9,0.1c-1.1,0-1.6-0.6-1.6-1.8V37h-1v-1.1h1v-1.5L54.5,34.5L54.5,34.5z"/>
	</g>
</g>
</svg>
