<?xml version="1.0" encoding="utf-8"?>
<!-- Generator: Adobe Illustrator 19.2.1, SVG Export Plug-In . SVG Version: 6.00 Build 0)  -->
<svg version="1.1" id="Capa_1" xmlns="http://www.w3.org/2000/svg" xmlns:xlink="http://www.w3.org/1999/xlink" x="0px" y="0px"
	 viewBox="0 0 32.7 22.3" style="enable-background:new 0 0 32.7 22.3;" xml:space="preserve">
<style type="text/css">
	.st0{fill:#FFFFFF;}
</style>
<g>
	<g>
		<path class="st0" d="M30,10.6L5.1,0.9C4.1,0.5,3.5,1,3.9,2.1L5,5.1c0.4,1,1.5,2.1,2.6,2.3l16.4,3.1c1.1,0.2,1.1,0.3,0,0.3
			L8.8,10.3c-1.1,0-1.7,0.8-1.3,1.8l0.1,0.4c0.4,1,1,2.7,1.3,3.8l1.2,3.4c0.4,1,0.6,1.9,0.6,1.9c0,0,0,0,0,0c0,0,0.8-0.4,1.8-0.9
			l17.5-8.5C31.1,11.7,31.1,11,30,10.6z"/>
		<path class="st0" d="M6.3,12.6l-0.8-2.4c-0.4-1-1-1.1-1.5-0.1c0,0-2.5,5-2.7,5.1c-0.2,0.1,3.7-0.5,3.7-0.5
			C6,14.6,6.6,13.7,6.3,12.6z"/>
	</g>
</g>
</svg>
